<svg xmlns="http://www.w3.org/2000/svg" width="1em" height="1em" viewBox="0 0 40 40" fill="currentColor" data-test="icon-WishlistToggle"><path clip-rule="evenodd" d="M14.81 9a5.67 5.67 0 00-2.36.52c-.74.338-1.4.832-1.93 1.45l-.13.15A5.7 5.7 0 009 14.84a5.69 5.69 0 001.29 3.6l9.41 11.1.33.35 9.67-11.41a5.69 5.69 0 001.29-3.6 5.64 5.64 0 00-1.39-3.72l-.13-.13a5.69 5.69 0 00-4.29-2 5.7 5.7 0 00-3.66 1.35l-1.26 1.06-.3.23-1.47-1.29A5.75 5.75 0 0014.81 9zm0 2.2a3.54 3.54 0 012.26.83l2.85 2.59 1.15-1 1.87-1.58a3.52 3.52 0 012.24-.83 3.47 3.47 0 012.63 1.2l.13.14a3.48 3.48 0 01.06 4.49l-7.18 8.72-.8.86-8-9.58a3.47 3.47 0 01-.8-2.21 3.49 3.49 0 01.86-2.29l.12-.14a3.48 3.48 0 012.61-1.2z" fill="currentColor" fill-rule="evenodd"/></svg>